# xmcd CD database file
#
# Track frame offsets:
#	150
#	13546
#	27753
#	43107
#	62848
#	78023
#	91779
#	105105
#	131656
#	145795
#	158975
#	174260
#	191135
#	205013
#	224254
#	237802
#	251328
#	262223
#	275886
#	286466
#	300190
#	313196
#	326543
#
# Disc length: 4568 seconds
#
# Revision: 1
# Processed by: cddbd v1.5.2PL0 Copyright (c) Steve Scherf et al.
# Submitted via: CDex 1.75
#
DISCID=3b11d617
DTITLE=Louis Armstrong - ICONS CD 1
DYEAR=2007
DGENRE=Jazz
TTITLE0=Blueberry Hill
TTITLE1=Dream A Little Dream Of Me (Duet with Ella Fitzgerald)
TTITLE2=Mack The Knife
TTITLE3=Now You Has Jazz
TTITLE4=My Sweet Hunk O' Trash (Duet with Billie Holiday)
TTITLE5=Flat Foot Floogie
TTITLE6=You Won't Be Satisfied (Until You Break My Heart) (Duet with Ella Fitzgerald)
TTITLE7=Basin Street Blues
TTITLE8=Rockin' Chair
TTITLE9=Endie
TTITLE10=Life Is So Peculiar
TTITLE11=Moonlight in Vermont (Duet with Ella Fitzgerald)
TTITLE12=C'est Si Bon
TTITLE13=Snafu
TTITLE14=Lazybones
TTITLE15=I'll Keep The Lovelight Burning (In My Heart)
TTITLE16=In The Shade Of The Old Apple Tree
TTITLE17=Linger In My Arms A Little Longer
TTITLE18=Who Walks In Whwn I Walk Out? (Duet with Ella Fitzgerald)
TTITLE19=I Wonder
TTITLE20=Ko Ko Mo (I Love You So)
TTITLE21=It Takes Two To Tango
TTITLE22=Stars Fell On Alabama (Duet with Ella Fitzgerald)
EXTD=YEAR: 2007
EXTT0=
EXTT1=
EXTT2=
EXTT3=
EXTT4=
EXTT5=
EXTT6=
EXTT7=
EXTT8=
EXTT9=
EXTT10=
EXTT11=
EXTT12=
EXTT13=
EXTT14=
EXTT15=
EXTT16=
EXTT17=
EXTT18=
EXTT19=
EXTT20=
EXTT21=
EXTT22=
PLAYORDER=
